# xmcd
#
# Track frame offsets:
#	150
#	16324
#	44524
#	62116
#	76716
#	91475
#	104300
#	119605
#	135865
#	151965
#	167185
#	185740
#	202175
#	222763
#	238912
#	257445
#	272505
#	289804
#	307540
#
# Disc length: 4343 seconds
#
# Revision: 0
# Processed by: cddbd v1.5.2PL0 Copyright (c) Steve Scherf et al.
# Submitted via: EasyCDDAExtractor 16.0.9.1
#
DISCID=0710f513
DTITLE=Various Artist - Viva Dance
DYEAR=1999
DGENRE=Dance
TTITLE0=Ann Lee - Voices
TTITLE1=S Club 7 - Bring All Back
TTITLE2=Melanie C. - Ga Ga
TTITLE3=Toy-Box - The Salior Song
TTITLE4=Yallow - Squeeze Pease
TTITLE5=Five - Inspector Gadget
TTITLE6=B'Witched - Jesse Hold On
TTITLE7=Woody Van Eyden - Get Ready
TTITLE8=DJ Visage feat. Clarissa - The Return (Time To Say Goodbay)
TTITLE9=Bad Boys Blue - Under The Boardwalk
TTITLE10=Rollergirl - Dear Jessie
TTITLE11=Alice Deejay - Better Of Alone
TTITLE12=Jay Pee - Summer Of 69
TTITLE13=Cargo - La La
TTITLE14=Eiffel 65 feat. Kim Lukas - All I Really Want
TTITLE15=B.B.S. and DJ Andy - Move
TTITLE16=X-Perience - Journey Of Life
TTITLE17=Multicyde feat. Anea - Not For The Dough
TTITLE18=Cosmos - Summer In Space
EXTD=
EXTT0=
EXTT1=
EXTT2=
EXTT3=
EXTT4=
EXTT5=
EXTT6=
EXTT7=
EXTT8=
EXTT9=
EXTT10=
EXTT11=
EXTT12=
EXTT13=
EXTT14=
EXTT15=
EXTT16=
EXTT17=
EXTT18=
PLAYORDER=
